<svg xmlns="http://www.w3.org/2000/svg" x="0px" y="0px"
width="50" height="50"
viewBox="0 0 172 172"
style=" fill:#ffffff;"><g fill="none" fill-rule="nonzero" stroke="none" stroke-width="1" stroke-linecap="butt" stroke-linejoin="miter" stroke-miterlimit="10" stroke-dasharray="" stroke-dashoffset="0" font-family="none" font-weight="none" font-size="none" text-anchor="none" style="mix-blend-mode: normal"><path d="M0,172v-172h172v172z" fill="none"></path><path d="M86,172c-47.49649,0 -86,-38.50351 -86,-86v0c0,-47.49649 38.50351,-86 86,-86v0c47.49649,0 86,38.50351 86,86v0c0,47.49649 -38.50351,86 -86,86z" fill="#ee5522"></path><g id="original-icon" fill="#000000"><path d="M86.86,17.2c-7.052,0 -12.30875,0.24725 -16.254,1.118c-1.978,0.44075 -3.66575,1.06425 -5.074,2.064c-1.40825,0.99975 -2.52625,2.54775 -2.752,4.3c-0.13975,1.04275 -0.16125,1.0105 -0.43,1.806c-0.26875,0.7955 -0.602,2.07475 -1.032,4.644c-1.25775,7.60025 -5.0955,7.17025 -8.6,10.922c-0.129,0.13975 -0.301,0.1935 -0.43,0.344c-4.13875,3.01 -6.88,7.8475 -6.88,13.33v60.544c0,5.4825 2.74125,10.32 6.88,13.33c0.03225,0.03225 0.05375,0.05375 0.086,0.086c0.11825,0.086 0.22575,0.18275 0.344,0.258c3.44,3.698 7.17025,3.397 8.6,11.008c0.43,2.31125 0.7955,3.47225 1.032,4.214c0.2365,0.74175 0.26875,0.93525 0.43,2.15c0.215,1.6985 1.30075,3.21425 2.666,4.214c1.36525,0.99975 2.967,1.6125 4.902,2.064c3.87,0.903 9.10525,1.204 16.168,1.204c7.052,0 12.30875,-0.24725 16.254,-1.118c1.978,-0.44075 3.66575,-1.06425 5.074,-2.064c1.40825,-0.99975 2.52625,-2.54775 2.752,-4.3c0.13975,-1.04275 0.16125,-1.0105 0.43,-1.806c0.26875,-0.7955 0.602,-2.07475 1.032,-4.644c1.25775,-7.60025 5.0955,-7.17025 8.6,-10.922c0.11825,-0.07525 0.22575,-0.172 0.344,-0.258c0.03225,-0.03225 0.05375,-0.05375 0.086,-0.086c4.13875,-3.01 6.88,-7.8475 6.88,-13.33v-5.504c1.51575,0 2.752,-1.23625 2.752,-2.752v-16.512c0,-1.51575 -1.23625,-2.752 -2.752,-2.752v-8.256c3.06375,-0.22575 5.504,-2.8165 5.504,-5.934v-10.148c0,-3.1175 -2.44025,-5.70825 -5.504,-5.934v-2.752c0,-5.4825 -2.74125,-10.32 -6.88,-13.33c-0.03225,-0.03225 -0.05375,-0.05375 -0.086,-0.086c-0.11825,-0.086 -0.22575,-0.18275 -0.344,-0.258c-3.44,-3.698 -7.17025,-3.397 -8.6,-11.008c-0.43,-2.31125 -0.7955,-3.47225 -1.032,-4.214c-0.2365,-0.74175 -0.26875,-0.93525 -0.43,-2.15c-0.215,-1.6985 -1.30075,-3.21425 -2.666,-4.214c-1.36525,-0.99975 -2.967,-1.6125 -4.902,-2.064c-3.87,-0.903 -9.10525,-1.204 -16.168,-1.204zM86.86,22.704c6.89075,0 11.954,0.33325 14.964,1.032c1.505,0.35475 2.39725,0.7955 2.838,1.118c0.44075,0.3225 0.39775,0.387 0.43,0.602c0.1935,1.47275 0.46225,2.3005 0.688,3.01c0.22575,0.7095 0.46225,1.47275 0.86,3.612c0.56975,3.04225 1.68775,5.289 2.924,7.138h-45.666c1.23625,-1.85975 2.33275,-4.16025 2.838,-7.224c0.39775,-2.3865 0.65575,-3.182 0.86,-3.784c0.20425,-0.602 0.50525,-1.36525 0.688,-2.752c0.03225,-0.2365 -0.03225,-0.26875 0.43,-0.602c0.46225,-0.33325 1.45125,-0.774 3.01,-1.118c3.10675,-0.688 8.2345,-1.032 15.136,-1.032zM61.92,44.72h49.536c6.106,0 11.008,4.902 11.008,11.008v5.934c-0.91375,1.6985 -1.548,4.1495 -1.548,7.826c0,3.66575 0.645,6.11675 1.548,7.826v38.958c0,6.106 -4.902,11.008 -11.008,11.008h-49.536c-6.106,0 -11.008,-4.902 -11.008,-11.008v-60.544c0,-6.106 4.902,-11.008 11.008,-11.008zM97.696,55.728c-4.52575,0 -8.256,3.73025 -8.256,8.256c0,4.52575 3.73025,8.256 8.256,8.256c4.52575,0 8.256,-3.73025 8.256,-8.256c0,-4.52575 -3.73025,-8.256 -8.256,-8.256zM77.056,58.48c-3.7625,0 -6.88,3.1175 -6.88,6.88c0,3.7625 3.1175,6.88 6.88,6.88c3.7625,0 6.88,-3.1175 6.88,-6.88c0,-3.7625 -3.1175,-6.88 -6.88,-6.88zM97.696,61.232c1.548,0 2.752,1.204 2.752,2.752c0,1.548 -1.204,2.752 -2.752,2.752c-1.548,0 -2.752,-1.204 -2.752,-2.752c0,-1.548 1.204,-2.752 2.752,-2.752zM63.296,63.984c-2.279,0 -4.128,1.849 -4.128,4.128c0,2.279 1.849,4.128 4.128,4.128c2.279,0 4.128,-1.849 4.128,-4.128c0,-2.279 -1.849,-4.128 -4.128,-4.128zM77.056,63.984c0.7955,0 1.376,0.5805 1.376,1.376c0,0.7955 -0.5805,1.376 -1.376,1.376c-0.7955,0 -1.376,-0.5805 -1.376,-1.376c0,-0.7955 0.5805,-1.376 1.376,-1.376zM127.538,63.984c0.2795,0 0.43,0.1505 0.43,0.43v10.148c0,0.2795 -0.1505,0.43 -0.43,0.43h-0.086c-0.03225,-0.043 -0.043,-0.0215 -0.086,-0.086c-0.3655,-0.59125 -0.946,-2.09625 -0.946,-5.418c0,-3.32175 0.6665,-4.8375 1.032,-5.418c0.05375,-0.086 0.043,-0.03225 0.086,-0.086zM86.688,74.992c-6.05225,0 -11.008,4.95575 -11.008,11.008c0,6.05225 4.95575,11.008 11.008,11.008c6.05225,0 11.008,-4.95575 11.008,-11.008c0,-6.05225 -4.95575,-11.008 -11.008,-11.008zM64.672,77.744c-4.52575,0 -8.256,3.73025 -8.256,8.256c0,4.52575 3.73025,8.256 8.256,8.256c4.52575,0 8.256,-3.73025 8.256,-8.256c0,-4.52575 -3.73025,-8.256 -8.256,-8.256zM108.704,77.744c-4.52575,0 -8.256,3.73025 -8.256,8.256c0,4.52575 3.73025,8.256 8.256,8.256c4.52575,0 8.256,-3.73025 8.256,-8.256c0,-4.52575 -3.73025,-8.256 -8.256,-8.256zM86.688,80.496c3.0745,0 5.504,2.4295 5.504,5.504c0,3.0745 -2.4295,5.504 -5.504,5.504c-3.0745,0 -5.504,-2.4295 -5.504,-5.504c0,-3.0745 2.4295,-5.504 5.504,-5.504zM64.672,83.248c1.548,0 2.752,1.204 2.752,2.752c0,1.548 -1.204,2.752 -2.752,2.752c-1.548,0 -2.752,-1.204 -2.752,-2.752c0,-1.548 1.204,-2.752 2.752,-2.752zM108.704,83.248c1.548,0 2.752,1.204 2.752,2.752c0,1.548 -1.204,2.752 -2.752,2.752c-1.548,0 -2.752,-1.204 -2.752,-2.752c0,-1.548 1.204,-2.752 2.752,-2.752zM110.08,97.008c-2.279,0 -4.128,1.849 -4.128,4.128c0,2.279 1.849,4.128 4.128,4.128c2.279,0 4.128,-1.849 4.128,-4.128c0,-2.279 -1.849,-4.128 -4.128,-4.128zM75.68,99.76c-4.52575,0 -8.256,3.73025 -8.256,8.256c0,4.52575 3.73025,8.256 8.256,8.256c4.52575,0 8.256,-3.73025 8.256,-8.256c0,-4.52575 -3.73025,-8.256 -8.256,-8.256zM96.32,99.76c-3.7625,0 -6.88,3.1175 -6.88,6.88c0,3.7625 3.1175,6.88 6.88,6.88c3.7625,0 6.88,-3.1175 6.88,-6.88c0,-3.7625 -3.1175,-6.88 -6.88,-6.88zM75.68,105.264c1.548,0 2.752,1.204 2.752,2.752c0,1.548 -1.204,2.752 -2.752,2.752c-1.548,0 -2.752,-1.204 -2.752,-2.752c0,-1.548 1.204,-2.752 2.752,-2.752zM96.32,105.264c0.7955,0 1.376,0.5805 1.376,1.376c0,0.7955 -0.5805,1.376 -1.376,1.376c-0.7955,0 -1.376,-0.5805 -1.376,-1.376c0,-0.7955 0.5805,-1.376 1.376,-1.376zM63.812,132.784h45.666c-1.23625,1.85975 -2.33275,4.16025 -2.838,7.224c-0.39775,2.3865 -0.65575,3.182 -0.86,3.784c-0.20425,0.602 -0.50525,1.36525 -0.688,2.752c-0.03225,0.2365 0.03225,0.26875 -0.43,0.602c-0.46225,0.33325 -1.45125,0.774 -3.01,1.118c-3.10675,0.688 -8.2345,1.032 -15.136,1.032c-6.89075,0 -11.954,-0.33325 -14.964,-1.032c-1.505,-0.35475 -2.39725,-0.7955 -2.838,-1.118c-0.44075,-0.3225 -0.39775,-0.387 -0.43,-0.602c-0.1935,-1.47275 -0.46225,-2.3005 -0.688,-3.01c-0.22575,-0.7095 -0.46225,-1.47275 -0.86,-3.612c-0.56975,-3.04225 -1.68775,-5.289 -2.924,-7.138z"></path></g></g></svg>