<svg xmlns="http://www.w3.org/2000/svg" x="0px" y="0px"
width="64" height="64"
viewBox="0 0 172 172"
style=" fill:#ffffff;"><g fill="none" fill-rule="nonzero" stroke="none" stroke-width="1" stroke-linecap="butt" stroke-linejoin="miter" stroke-miterlimit="10" stroke-dasharray="" stroke-dashoffset="0" font-family="none" font-weight="none" font-size="none" text-anchor="none" style="mix-blend-mode: normal"><path d="M0,172v-172h172v172z" fill="none"></path><g><path d="M158.5625,44.34375h-59.125c-6.67618,0.00727 -12.08648,5.41757 -12.09375,12.09375v48.375c0.00727,6.67618 5.41757,12.08648 12.09375,12.09375h23.23613l20.64833,10.32484c1.24981,0.62387 2.73345,0.55659 3.92167,-0.17782c1.18822,-0.73442 1.9118,-2.0314 1.91262,-3.42826v-6.71875h9.40625c6.67618,-0.00727 12.08648,-5.41757 12.09375,-12.09375v-48.375c-0.00727,-6.67618 -5.41757,-12.08648 -12.09375,-12.09375zM150.5,100.78125h-43c-2.2264,0 -4.03125,-1.80485 -4.03125,-4.03125c0,-2.2264 1.80485,-4.03125 4.03125,-4.03125h43c2.2264,0 4.03125,1.80485 4.03125,4.03125c0,2.2264 -1.80485,4.03125 -4.03125,4.03125zM150.5,84.65625h-43c-2.2264,0 -4.03125,-1.80485 -4.03125,-4.03125c0,-2.2264 1.80485,-4.03125 4.03125,-4.03125h43c2.2264,0 4.03125,1.80485 4.03125,4.03125c0,2.2264 -1.80485,4.03125 -4.03125,4.03125zM150.5,68.53125h-43c-2.2264,0 -4.03125,-1.80485 -4.03125,-4.03125c0,-2.2264 1.80485,-4.03125 4.03125,-4.03125h43c2.2264,0 4.03125,1.80485 4.03125,4.03125c0,2.2264 -1.80485,4.03125 -4.03125,4.03125z" fill="#e67e22"></path><path d="M158.5625,1.34375h-145.125c-6.67618,0.00727 -12.08648,5.41757 -12.09375,12.09375v145.125c0.00727,6.67618 5.41757,12.08648 12.09375,12.09375h145.125c6.67618,-0.00727 12.08648,-5.41757 12.09375,-12.09375v-30.97185c0,-2.2264 -1.80485,-4.03125 -4.03125,-4.03125c-2.2264,0 -4.03125,1.80485 -4.03125,4.03125v30.97185c-0.00243,2.22539 -1.80586,4.02882 -4.03125,4.03125h-145.125c-2.22539,-0.00243 -4.02882,-1.80586 -4.03125,-4.03125v-127.65625h153.1875v2.75574c0,2.2264 1.80485,4.03125 4.03125,4.03125c2.2264,0 4.03125,-1.80485 4.03125,-4.03125v-20.22449c-0.00727,-6.67618 -5.41757,-12.08648 -12.09375,-12.09375zM9.40625,22.84375v-9.40625c0.00243,-2.22539 1.80586,-4.02882 4.03125,-4.03125h145.125c2.22539,0.00243 4.02882,1.80586 4.03125,4.03125v9.40625z" fill="#ffffff"></path><path d="M55.82475,153.95647l25.91699,-15.55022h28.44576c5.10918,-0.01668 9.65763,-3.23977 11.36675,-8.05463c0.4868,-1.35776 0.21105,-2.87214 -0.72311,-3.97116c-0.93416,-1.09901 -2.38433,-1.61514 -3.80278,-1.35345c-1.41845,0.2617 -2.58897,1.26134 -3.06944,2.62135c-0.56264,1.60411 -2.07155,2.6825 -3.77142,2.69537h-29.5625c-0.73084,0.00044 -1.44787,0.19908 -2.07475,0.57478l-20.769,12.46119v-9.00471c-0.00012,-2.22635 -1.8049,-4.03113 -4.03125,-4.03125h-18.8125c-2.22539,-0.00243 -4.02882,-1.80586 -4.03125,-4.03125v-59.125c0.00243,-2.22539 1.80586,-4.02882 4.03125,-4.03125h40.3125c2.2264,0 4.03125,-1.80485 4.03125,-4.03125c0,-2.2264 -1.80485,-4.03125 -4.03125,-4.03125h-40.3125c-6.67618,0.00727 -12.08648,5.41757 -12.09375,12.09375v59.125c0.00727,6.67618 5.41757,12.08648 12.09375,12.09375h14.78125v12.09375c0.00243,1.45146 0.78421,2.78977 2.04733,3.5048c1.26312,0.71502 2.81294,0.69657 4.05867,-0.04832z" fill="#ffffff"></path><path d="M72.5625,76.59375h-26.875c-2.2264,0 -4.03125,1.80485 -4.03125,4.03125c0,2.2264 1.80485,4.03125 4.03125,4.03125h26.875c2.2264,0 4.03125,-1.80485 4.03125,-4.03125c0,-2.2264 -1.80485,-4.03125 -4.03125,-4.03125z" fill="#ffffff"></path><path d="M72.5625,108.84375h-26.875c-2.2264,0 -4.03125,1.80485 -4.03125,4.03125c0,2.2264 1.80485,4.03125 4.03125,4.03125h26.875c2.2264,0 4.03125,-1.80485 4.03125,-4.03125c0,-2.2264 -1.80485,-4.03125 -4.03125,-4.03125z" fill="#ffffff"></path><path d="M72.5625,92.71875h-26.875c-2.2264,0 -4.03125,1.80485 -4.03125,4.03125c0,2.2264 1.80485,4.03125 4.03125,4.03125h26.875c2.2264,0 4.03125,-1.80485 4.03125,-4.03125c0,-2.2264 -1.80485,-4.03125 -4.03125,-4.03125z" fill="#ffffff"></path></g></g></svg>