<svg xmlns="http://www.w3.org/2000/svg" x="0px" y="0px"
width="50" height="50"
viewBox="0 0 172 172"
style=" fill:#ffffff;"><g fill="none" fill-rule="nonzero" stroke="none" stroke-width="1" stroke-linecap="butt" stroke-linejoin="miter" stroke-miterlimit="10" stroke-dasharray="" stroke-dashoffset="0" font-family="none" font-weight="none" font-size="none" text-anchor="none" style="mix-blend-mode: normal"><path d="M0,172v-172h172v172z" fill="none"></path><g><path d="M117.53333,45.86667c0,0.71667 -2.86667,18.275 -11.46667,25.8c11.46667,-36.90833 -20.06667,-57.33333 -20.06667,-57.33333c0,0 -5.01667,27.23333 -14.33333,37.625c-0.71667,-11.825 -7.16667,-18.99167 -7.16667,-18.99167c-5.01667,21.14167 -21.5,39.41667 -21.5,53.39167c0,23.65 19.35,43 43,43c23.65,0 43,-19.34642 43,-43c0,-17.55833 -5.01667,-30.1 -11.46667,-40.49167z" fill="#ff7400"></path><path d="M46.58333,136.16667h78.83333c7.88333,0 14.33333,6.45 14.33333,14.33333v7.16667h-107.5v-7.16667c0,-7.88333 6.45,-14.33333 14.33333,-14.33333z" fill="#ffffff"></path><path d="M78.83333,136.16667h14.33333v10.75h-14.33333zM107.5,136.16667h14.33333v10.75h-14.33333zM50.16667,136.16667h14.33333v10.75h-14.33333z" fill="#37474f"></path><path d="M100.33333,107.5c0,7.88333 -6.45,14.33333 -14.33333,14.33333c-7.88333,0 -14.33333,-6.45 -14.33333,-14.33333c0,-7.88333 14.33333,-35.83333 14.33333,-35.83333c0,0 14.33333,27.95 14.33333,35.83333z" fill="#ff9e52"></path></g></g></svg>