<svg xmlns="http://www.w3.org/2000/svg" x="0px" y="0px"
width="50" height="50"
viewBox="0 0 172 172"
style=" fill:#000000;"><g fill="none" fill-rule="nonzero" stroke="none" stroke-width="1" stroke-linecap="butt" stroke-linejoin="miter" stroke-miterlimit="10" stroke-dasharray="" stroke-dashoffset="0" font-family="none" font-weight="none" font-size="none" text-anchor="none" style="mix-blend-mode: normal"><path d="M0,172v-172h172v172z" fill="none"></path><g fill="#ffffff"><path d="M148.74904,40.59888c-4.75064,0 -8.6,3.84936 -8.6,8.6c0,3.0616 1.61336,5.73104 4.02136,7.25496l-28.90288,60.67816c-0.21672,0.45408 -0.72928,0.688 -1.21088,0.5504c-0.4816,-0.1376 -0.80152,-0.59856 -0.75336,-1.1008l7.90512,-79.45024c0.41968,0.06192 0.8428,0.13072 1.27968,0.13072c4.75064,0 8.6,-3.84936 8.6,-8.6c0,-4.75064 -3.84936,-8.6 -8.6,-8.6c-4.75064,0 -8.6,3.84936 -8.6,8.6c0,3.57072 2.17752,6.63232 5.27696,7.93264l-21.1216,79.06152c-0.13072,0.48504 -0.58824,0.8084 -1.08704,0.76368c-0.4988,-0.04128 -0.89784,-0.43688 -0.94256,-0.93912l-8.01864,-88.5972c4.54424,-0.23048 8.16656,-3.956 8.16656,-8.55528c0,-4.75064 -3.84936,-8.6 -8.6,-8.6c-4.75064,0 -8.6,3.84936 -8.6,8.6c0,4.24496 3.08224,7.75032 7.12768,8.45208l-7.3788,88.5456c-0.04128,0.50224 -0.43688,0.90128 -0.93912,0.946c-0.50224,0.04472 -0.9632,-0.27864 -1.09048,-0.76368l-20.99088,-78.57992c3.82184,-0.8772 6.67704,-4.27936 6.67704,-8.36608c0,-4.75064 -3.84936,-8.6 -8.6,-8.6c-4.75064,0 -8.6,3.84936 -8.6,8.6c0,4.6612 3.7152,8.43488 8.342,8.57248l7.87416,79.14408c0.04816,0.4988 -0.26832,0.9632 -0.75336,1.1008c-0.48504,0.13416 -0.9976,-0.09632 -1.21088,-0.5504l-28.724,-60.3032c2.4768,-1.51016 4.14864,-4.21056 4.14864,-7.32376c0,-4.75064 -3.84936,-8.6 -8.6,-8.6c-4.75064,0 -8.6,3.84936 -8.6,8.6c0,4.75064 3.84936,8.6 8.6,8.6c0.93224,0 1.80944,-0.18576 2.6488,-0.45752c12.88968,42.29136 27.01776,90.32752 27.01776,90.32752h0.0516c6.59104,6.89376 16.4432,13.24744 30.34424,13.13736c13.61896,0.11008 27.28608,-6.278 32.45984,-12.82776h0.00344c0,0 14.21064,-48.3148 27.13128,-90.6956c0.8944,0.31648 1.84384,0.51944 2.84488,0.51944c4.75064,0 8.6,-3.84936 8.6,-8.6c0.00344,-4.75408 -3.84936,-8.60688 -8.59656,-8.60688zM86.60888,156.13472c-10.44728,-0.27176 -17.29288,-2.27728 -24.06624,-7.52672c-0.22016,-0.172 -0.36464,-0.42656 -0.3956,-0.7052c-0.03096,-0.27864 0.0516,-0.55728 0.23392,-0.774c8.90272,-10.70528 41.33504,-11.13528 50.64368,-0.25112c0.19264,0.2236 0.27864,0.51944 0.23736,0.81184c-0.03784,0.2924 -0.19952,0.55384 -0.44376,0.71896c-9.41872,6.3812 -14.04208,7.396 -26.20936,7.72624z"></path></g></g></svg>