<svg xmlns="http://www.w3.org/2000/svg" x="0px" y="0px"
width="24" height="24"
viewBox="0 0 172 172"
style=" fill:#ffffff;"><g fill="none" fill-rule="nonzero" stroke="none" stroke-width="1" stroke-linecap="butt" stroke-linejoin="miter" stroke-miterlimit="10" stroke-dasharray="" stroke-dashoffset="0" font-family="none" font-weight="none" font-size="none" text-anchor="none" style="mix-blend-mode: normal"><path d="M0,172v-172h172v172z" fill="none"></path><g fill="#ec5522"><path d="M117.50814,14.33333c-0.93167,0 -1.71283,0.7132 -1.79167,1.6377l-0.5319,6.38281c-5.50222,1.31238 -10.36205,4.18555 -14.12338,8.16048l-5.78092,-2.72949c-0.84567,-0.40133 -1.85774,-0.08197 -2.32357,0.72786l-4.32519,7.48861c-0.46583,0.80267 -0.23494,1.83523 0.5319,2.36556l5.31901,3.68132c-0.76927,2.59028 -1.31576,5.27862 -1.31576,8.11849c0,2.84457 0.54404,5.53843 1.31576,8.13249l-5.30502,3.68132c-0.76683,0.53033 -0.99773,1.55573 -0.5319,2.36556l4.32519,7.48861c0.46583,0.80267 1.46391,1.10803 2.30957,0.71386l5.78092,-2.72949c3.76132,3.97493 8.62116,6.8481 14.12338,8.16048l0.5319,6.38281c0.07883,0.9245 0.86,1.6377 1.79167,1.6377h8.6504c0.93167,0 1.71283,-0.7132 1.79167,-1.6377l0.5319,-6.38281c5.50222,-1.31237 10.36205,-4.18555 14.12338,-8.16048l5.78092,2.72949c0.84567,0.40133 1.85774,0.08197 2.32357,-0.72787l4.32519,-7.4886c0.46584,-0.80267 0.23494,-1.83523 -0.5319,-2.36556l-5.31901,-3.68132c0.76927,-2.59028 1.31576,-5.27862 1.31576,-8.11849c0,-2.84457 -0.54404,-5.53843 -1.31576,-8.13249l5.30502,-3.68132c0.76683,-0.53033 0.99773,-1.55573 0.5319,-2.36556l-4.32519,-7.48861c-0.46583,-0.80267 -1.46391,-1.10803 -2.30957,-0.71387l-5.78092,2.72949c-3.76132,-3.97493 -8.62116,-6.8481 -14.12338,-8.16048l-0.5319,-6.38281c-0.07883,-0.9245 -0.86,-1.6377 -1.79167,-1.6377zM45.84147,28.66667c-0.93167,0 -1.71283,0.7132 -1.79167,1.6377l-0.5319,6.38281c-5.50221,1.31238 -10.36205,4.18555 -14.12337,8.16048l-5.78092,-2.72949c-0.84567,-0.40133 -1.85773,-0.08197 -2.32357,0.72786l-4.3252,7.48861c-0.46583,0.80267 -0.23493,1.83523 0.5319,2.36556l5.31901,3.68132c-0.76926,2.59028 -1.31576,5.27862 -1.31576,8.11849c0,2.84457 0.54404,5.53843 1.31576,8.13249l-5.30501,3.68132c-0.76683,0.53033 -0.99773,1.55573 -0.5319,2.36556l4.3252,7.48861c0.46583,0.80267 1.4639,1.10803 2.30957,0.71386l5.78092,-2.72949c3.76432,3.97809 8.62979,6.84958 14.13737,8.16048l0.5319,6.38281c0.07883,0.9245 0.846,1.6377 1.77767,1.6377h8.65039c0.93167,0 1.71283,-0.7132 1.79167,-1.6377l0.5319,-6.38281c5.50221,-1.31237 10.36205,-4.18555 14.12337,-8.16048l5.78092,2.72949c0.84567,0.40133 1.85774,0.08197 2.32357,-0.72787l4.32519,-7.48861c0.46583,-0.80266 0.23494,-1.83523 -0.5319,-2.36556l-5.31901,-3.68132c0.76927,-2.59027 1.31576,-5.27862 1.31576,-8.11849c0,-2.84457 -0.54404,-5.53843 -1.31576,-8.13249l5.30502,-3.68132c0.76683,-0.53033 0.99773,-1.55573 0.5319,-2.36556l-4.32519,-7.48861c-0.46583,-0.80267 -1.46391,-1.10803 -2.30957,-0.71387l-5.78092,2.72949c-3.76132,-3.97493 -8.62116,-6.8481 -14.12337,-8.16048l-0.5319,-6.38281c-0.07883,-0.9245 -0.86,-1.6377 -1.79167,-1.6377zM121.83333,39.41667c5.934,0 10.75,4.816 10.75,10.75c0,5.934 -4.816,10.75 -10.75,10.75c-5.934,0 -10.75,-4.816 -10.75,-10.75c0,-5.934 4.816,-10.75 10.75,-10.75zM50.16667,53.75c5.934,0 10.75,4.816 10.75,10.75c0,5.934 -4.816,10.75 -10.75,10.75c-5.934,0 -10.75,-4.816 -10.75,-10.75c0,-5.934 4.816,-10.75 10.75,-10.75zM96.00814,86c-0.93167,0 -1.71283,0.7132 -1.79167,1.6377l-0.5319,6.38281c-5.50222,1.31237 -10.36205,4.18555 -14.12338,8.16048l-5.78092,-2.72949c-0.84567,-0.40133 -1.85774,-0.08197 -2.32357,0.72787l-4.3252,7.48861c-0.46583,0.80266 -0.23493,1.83523 0.5319,2.36556l5.31901,3.68132c-0.76927,2.59027 -1.31576,5.27862 -1.31576,8.11849c0,2.84457 0.54404,5.53843 1.31576,8.13249l-5.30501,3.68132c-0.76683,0.53033 -0.99773,1.55573 -0.5319,2.36556l4.3252,7.48861c0.46583,0.80266 1.4639,1.10803 2.30957,0.71386l5.78092,-2.72949c3.76132,3.97493 8.62116,6.8481 14.12338,8.16048l0.5319,6.38281c0.07883,0.9245 0.86,1.6377 1.79167,1.6377h8.6504c0.93167,0 1.71283,-0.7132 1.79167,-1.6377l0.5319,-6.38281c5.50222,-1.31237 10.36205,-4.18555 14.12338,-8.16048l5.78092,2.72949c0.84567,0.40133 1.85774,0.08197 2.32357,-0.72787l4.32519,-7.48861c0.46584,-0.80267 0.23494,-1.83523 -0.5319,-2.36556l-5.31901,-3.68132c0.76927,-2.59027 1.31576,-5.27862 1.31576,-8.11849c0,-2.84457 -0.54404,-5.53843 -1.31576,-8.13249l5.30502,-3.68132c0.76683,-0.53033 0.99773,-1.55573 0.5319,-2.36556l-4.32519,-7.48861c-0.46583,-0.80267 -1.46391,-1.10803 -2.30957,-0.71386l-5.78092,2.72949c-3.76132,-3.97493 -8.62116,-6.8481 -14.12338,-8.16048l-0.5319,-6.38281c-0.07883,-0.9245 -0.86,-1.6377 -1.79167,-1.6377zM100.33333,111.08333c5.934,0 10.75,4.816 10.75,10.75c0,5.934 -4.816,10.75 -10.75,10.75c-5.934,0 -10.75,-4.816 -10.75,-10.75c0,-5.934 4.816,-10.75 10.75,-10.75z"></path></g></g></svg>